#!OML:ASF X:\2005_08_12_Meinard\c3d\meinard.ASF
:FULLY-SPECIFIED
:DEGREES
518
root 4.72325 16.555 -0.726153 31.4905 -87.1582 -50.5006
lowerback 34.4476 -2.05637 -5.69565
upperback 7.29358 -5.35069 1.59982
thorax -8.77874 -2.84634 6.77695
lowerneck -16.6163 -2.9085 -6.64348
upperneck 4.92288 -3.40702 8.76011
head 4.4274 -1.3156 3.51651
rclavicle -6.59965e-014 4.01545e-014
rhumerus -35.6255 -7.95422 -82.0925
rradius 32.0799
rwrist 26.5178
rhand -6.01925 -5.44471
rfingers 7.12502
rthumb 19.8139 -34.4548
lclavicle -6.59965e-014 4.01545e-014
lhumerus -23.6099 61.8881 71.9597
lradius 21.2309
lwrist -266.826
lhand -11.809 8.99283
lfingers 7.12502
lthumb 14.241 38.4846
rfemur -0.100162 0.802602 23.3586
rtibia 44.963
rfoot -21.2602 -20.6331
rtoes 6.2977
lfemur 4.53621 1.25546 -19.3242
ltibia 41.8973
lfoot -21.3841 23.9885
ltoes 14.5454
519
root 4.72306 16.556 -0.719938 27.3234 -87.1562 -46.4172
lowerback 34.5008 -2.07228 -5.85104
upperback 7.27262 -5.43107 1.56983
thorax -8.80013 -2.87943 6.85945
lowerneck -16.6616 -2.90573 -6.62954
upperneck 4.95375 -3.40234 8.72962
head 4.44274 -1.31339 3.50492
rclavicle -8.20484e-014 3.45885e-014
rhumerus -35.7811 -7.76341 -82.2148
rradius 32.0292
rwrist 26.5857
rhand -5.80207 -5.44434
rfingers 7.12502
rthumb 20.0226 -34.4327
lclavicle -8.20484e-014 3.45885e-014
lhumerus -24.9262 63.1744 70.4987
lradius 21.1529
lwrist -268.158
lhand -11.6749 8.63269
lfingers 7.12502
lthumb 14.3702 38.1153
rfemur -0.0527226 0.771909 23.3122
rtibia 45.2617
rfoot -21.4644 -20.3299
rtoes 5.84422
lfemur 4.7023 1.16427 -19.5531
ltibia 41.7275
lfoot -21.2952 23.9957
ltoes 14.5677
520
root 4.72164 16.5584 -0.714361 23.5677 -87.1443 -42.7394
lowerback 34.5457 -2.08281 -5.98069
upperback 7.24225 -5.49466 1.53524
thorax -8.83333 -2.90329 6.91765
lowerneck -16.6869 -2.90588 -6.5701
upperneck 4.98489 -3.40865 8.66555
head 4.45434 -1.318 3.47433
rclavicle -4.51738e-014 2.18663e-014
rhumerus -35.9502 -7.67264 -82.2935
rradius 31.9418
rwrist 26.8121
rhand -5.61936 -5.40075
rfingers 7.12502
rthumb 20.1982 -34.3706
lclavicle -4.51738e-014 2.18663e-014
lhumerus -26.3203 64.3395 68.9688
lradius 21.1505
lwrist -269.328
lhand -11.5729 8.31917
lfingers 7.12502
lthumb 14.4686 37.7947
rfemur 0.0174903 0.781135 23.3068
rtibia 45.511
rfoot -21.571 -20.0991
rtoes 5.60587
lfemur 4.86153 1.09127 -19.758
ltibia 41.5783
lfoot -21.2207 23.9932
ltoes 14.5987
521
root 4.71982 16.5568 -0.709387 19.882 -87.1184 -39.1228
lowerback 34.566 -2.0972 -6.10188
upperback 7.21831 -5.55879 1.50004
thorax -8.8507 -2.92854 6.96911
lowerneck -16.6014 -2.91023 -6.60072
upperneck 4.95048 -3.41178 8.68249
head 4.43133 -1.32127 3.48465
rclavicle -2.92213e-014 3.97569e-015
rhumerus -36.1108 -7.56019 -82.3899
rradius 31.849
rwrist 27.0309
rhand -5.47634 -5.38558
rfingers 7.12502
rthumb 20.3357 -34.3409
lclavicle -2.92213e-014 3.97569e-015
lhumerus -27.8125 65.4807 67.3505
lradius 21.2094
lwrist -270.384
lhand -11.5187 8.09583
lfingers 7.12502
lthumb 14.5207 37.5677
rfemur 0.0943433 0.823259 23.3354
rtibia 45.7318
rfoot -21.6065 -19.879
rtoes 5.43526
lfemur 4.99215 1.0327 -19.9511
ltibia 41.4666
lfoot -21.1594 23.9621
ltoes 14.599
522
root 4.71767 16.5541 -0.704719 16.5844 -87.0689 -35.9101
lowerback 34.6003 -2.11721 -6.20325
upperback 7.20279 -5.62475 1.4687
thorax -8.86503 -2.95598 7.01511
lowerneck -16.5466 -2.90933 -6.58657
upperneck 4.93854 -3.41051 8.63834
head 4.41755 -1.32404 3.46867
rclavicle 4.28878e-014 1.98785e-016
rhumerus -36.2482 -7.44369 -82.4856
rradius 31.7477
rwrist 27.303
rhand -5.32237 -5.35343
rfingers 7.12502
rthumb 20.4837 -34.2929
lclavicle 4.28878e-014 1.98785e-016
lhumerus -29.2608 66.4985 65.7693
lradius 21.3137
lwrist -271.268
lhand -11.5248 8.02846
lfingers 7.12502
lthumb 14.5149 37.5007
rfemur 0.203458 0.792109 23.3898
rtibia 45.916
rfoot -21.6203 -19.5735
rtoes 5.31562
lfemur 5.12781 0.943902 -20.1317
ltibia 41.3848
lfoot -21.1121 23.9583
ltoes 14.6988
523
root 4.71422 16.5512 -0.700323 13.3359 -87.0158 -32.7346
lowerback 34.6154 -2.13326 -6.28826
upperback 7.18148 -5.67865 1.42712
thorax -8.88237 -2.97685 7.03656
lowerneck -16.4807 -2.9157 -6.54653
upperneck 4.91814 -3.42289 8.5778
head 4.39966 -1.3343 3.44208
rclavicle -2.20154e-014 1.76918e-014
rhumerus -36.3965 -7.34595 -82.5809
rradius 31.6358
rwrist 27.5552
rhand -5.20037 -5.29793
rfingers 7.12502
rthumb 20.6009 -34.2248
lclavicle -2.20154e-014 1.76918e-014
lhumerus -30.6008 67.3029 64.3152
lradius 21.4617
lwrist -271.903
lhand -11.6644 7.98484
lfingers 7.12502
lthumb 14.3804 37.4667
rfemur 0.312056 0.698208 23.4304
rtibia 46.0752
rfoot -21.6673 -19.1691
rtoes 5.26784
lfemur 5.23483 0.839486 -20.3277
ltibia 41.3439
lfoot -21.104 23.9742
ltoes 14.71
